HIERARCHY
ROOT Hips
{
	OFFSET 0.000000 0.000000 0.000000 
	CHANNELS 6 Xposition Yposition Zposition Zrotation Yrotation Xrotation
	JOINT LeftUpLeg
	{
		OFFSET 1.363060 -1.794630 0.839290 
		CHANNELS 3 Zrotation Yrotation Xrotation
		JOINT LeftLeg
		{
			OFFSET 2.448110 -6.726130 0.000000 
			CHANNELS 3 Zrotation Yrotation Xrotation
			JOINT LeftFoot
			{
				OFFSET 2.562200 -7.039590 0.000000 
				CHANNELS 3 Zrotation Yrotation Xrotation
				JOINT LeftToeBase
				{
					OFFSET 0.157640 -0.433110 2.322550 
					CHANNELS 3 Zrotation Yrotation Xrotation
					End Site
					{
						OFFSET 0.000000 0.000000 0.000000 
					}
				}
			}
		}
	}
	JOINT RightUpLeg
	{
		OFFSET -1.305520 -1.794630 0.839290 
		CHANNELS 3 Zrotation Yrotation Xrotation
		JOINT RightLeg
		{
			OFFSET -2.542530 -6.985550 0.000000 
			CHANNELS 3 Zrotation Yrotation Xrotation
			JOINT RightFoot
			{
				OFFSET -2.568260 -7.056230 0.000000 
				CHANNELS 3 Zrotation Yrotation Xrotation
				JOINT RightToeBase
				{
					OFFSET -0.164730 -0.452590 2.363150 
					CHANNELS 3 Zrotation Yrotation Xrotation
					End Site
					{
						OFFSET 0.000000 0.000000 0.000000 
					}
				}
			}
		}
	}
	JOINT Spine
	{
		OFFSET 0.028270 2.035590 -0.193380 
		CHANNELS 3 Zrotation Yrotation Xrotation
		JOINT Spine1
		{
			OFFSET 0.056720 2.048850 -0.042750 
			CHANNELS 3 Zrotation Yrotation Xrotation
			JOINT Neck1
			{
				OFFSET -0.054170 1.746240 0.172020 
				CHANNELS 3 Zrotation Yrotation Xrotation
				JOINT Head
				{
					OFFSET 0.104070 1.761360 -0.123970 
					CHANNELS 3 Zrotation Yrotation Xrotation
					End Site
					{
						OFFSET 0.000000 0.000000 0.000000 
					}
				}
			}
			JOINT LeftArm
			{
				OFFSET 3.362410 1.200890 -0.311210 
				CHANNELS 3 Zrotation Yrotation Xrotation
				JOINT LeftForeArm
				{
					OFFSET 4.983000 -0.000000 -0.000000 
					CHANNELS 3 Zrotation Yrotation Xrotation
					JOINT LeftHand
					{
						OFFSET 3.483560 -0.000000 -0.000000 
						CHANNELS 3 Zrotation Yrotation Xrotation
						JOINT LeftHandIndex1
						{
							OFFSET 0.715260 -0.000000 -0.000000 
							CHANNELS 3 Zrotation Yrotation Xrotation
							End Site
							{
								OFFSET 0.000000 0.000000 0.000000 
							}
						}
					}
				}
			}
			JOINT RightArm
			{
				OFFSET -3.136600 1.374050 -0.404650 
				CHANNELS 3 Zrotation Yrotation Xrotation
				JOINT RightForeArm
				{
					OFFSET -5.241900 -0.000000 -0.000000 
					CHANNELS 3 Zrotation Yrotation Xrotation
					JOINT RightHand
					{
						OFFSET -3.444170 -0.000000 -0.000000 
						CHANNELS 3 Zrotation Yrotation Xrotation
						JOINT RightHandIndex1
						{
							OFFSET -0.622530 -0.000000 -0.000000 
							CHANNELS 3 Zrotation Yrotation Xrotation
							End Site
							{
								OFFSET 0.000000 0.000000 0.000000 
							}
						}
					}
				}
			}
		}
	}
}
MOTION
Frames: 7
Frame Time: 0.041667
-2.343561 17.420283 -23.067125 -4.622154 10.538853 2.049836 -5.549087 -6.359661 -13.507104 2.446378 12.203541 34.011482 2.745610 -17.321421 -4.203021 0.150400 2.499400 6.888100 20.781067 -5.280448 -15.057992 -2.394380 -12.690544 34.471428 0.543400 -6.167485 -14.532654 -0.113500 -2.171900 5.980900 1.599464 2.238238 -4.328391 1.409589 1.175364 -1.373450 -1.558065 8.224054 16.857634 -0.292000 2.664400 12.940800 -91.320103 5.492917 24.201304 12.972830 -23.698013 -3.071629 -0.276645 -0.049866 -0.575132 -7.125000 0.000000 0.000000 84.110187 -4.736248 12.268749 -11.594816 19.343868 -2.465058 0.779032 -0.187495 -7.694272 7.125000 0.000000 0.000000 
-2.344178 17.419049 -23.067537 -4.776185 10.489060 2.022063 -5.396920 -6.309620 -13.547477 2.472917 12.229458 34.102803 2.751644 -17.288280 -4.245057 0.142800 2.435100 6.709800 20.946609 -5.256304 -14.998493 -2.375366 -12.667953 34.389527 0.509755 -6.043364 -14.528462 -0.127800 -2.304900 6.349000 1.624715 2.214026 -4.304407 1.425351 1.163753 -1.249239 -1.490259 8.197829 16.973875 -0.231700 2.634600 13.042100 -91.416537 5.364226 23.320721 12.844236 -23.528188 -3.028541 -0.268954 -0.019106 0.671424 -7.125000 0.000000 0.000000 83.992966 -4.643914 12.496590 -11.510950 19.223973 -2.428361 0.789129 -0.129599 -7.710451 7.125000 0.000000 0.000000 
-2.345103 17.421723 -23.066919 -4.946110 10.473768 2.027635 -5.214661 -6.210893 -13.669844 2.509902 12.262659 34.231602 2.751711 -17.413480 -4.116600 0.175900 2.701900 7.449800 21.153185 -5.122054 -14.921430 -2.348394 -12.636137 34.280606 0.510581 -6.054860 -14.554258 -0.142600 -2.433600 6.705500 1.668434 2.163476 -4.282554 1.476979 1.140449 -1.133204 -1.520261 8.188880 16.999515 -0.226900 2.607800 13.100500 -91.614852 5.234682 22.963393 12.829262 -23.507938 -3.023975 -0.266493 -0.014798 0.717988 -7.125000 0.000000 0.000000 83.878420 -4.664930 12.754806 -11.704225 19.486658 -2.493186 0.796013 -0.033277 -7.703944 7.125000 0.000000 0.000000 
-2.347469 17.420283 -23.067434 -5.087857 10.509095 2.034018 -5.041136 -6.013131 -13.849485 2.548933 12.285408 34.322846 2.785713 -17.733007 -4.203797 0.150300 2.498000 6.884000 21.335756 -5.114597 -14.931701 -2.329317 -12.611339 34.197824 0.556132 -6.206048 -14.481176 -0.131500 -2.337300 6.438900 1.669649 2.147201 -4.286429 1.348053 1.131995 -1.154137 -1.593276 8.087730 16.942619 -0.294500 2.574100 13.044300 -91.620220 5.276387 23.094666 12.907849 -23.590558 -3.042156 -0.267365 -0.057032 0.119365 -7.125000 0.000000 0.000000 83.948154 -4.695746 12.661707 -11.820725 19.662852 -2.543666 0.792057 -0.090238 -7.281146 7.125000 0.000000 0.000000 
-2.347880 17.417404 -23.069388 -5.238790 10.529887 2.016431 -4.873155 -5.874323 -13.975586 2.582185 12.303589 34.398720 2.815605 -17.941003 -4.322730 0.122000 2.251700 6.201800 21.506636 -5.257955 -14.994521 -2.314083 -12.588305 34.120853 0.581004 -6.268677 -14.358881 -0.115700 -2.192600 6.038300 1.641676 2.167886 -4.308346 1.135111 1.137165 -1.232205 -1.367132 8.005890 17.035044 -0.131300 2.538100 13.073300 -91.505187 5.384258 23.095176 12.907347 -23.580014 -3.045268 -0.267322 -0.029501 -0.026782 -7.125000 0.000000 0.000000 84.048340 -4.709198 12.482784 -11.837152 19.700865 -2.555770 0.787094 -0.119452 -6.486019 7.125000 0.000000 0.000000 
-2.350245 17.417712 -23.070313 -5.265753 10.572083 2.041438 -4.830424 -5.897353 -14.024636 2.595000 12.315022 34.442769 2.820215 -17.964335 -4.351737 0.113800 2.175000 5.989400 21.541346 -5.228755 -14.994570 -2.300733 -12.570399 34.061802 0.575016 -6.245858 -14.357820 -0.124600 -2.275300 6.267200 1.625122 2.196796 -4.302828 1.123889 1.149701 -1.187200 -1.032094 7.909345 17.043409 0.139500 2.484200 13.051800 -91.499887 5.339693 23.400298 12.963472 -23.644241 -3.064681 -0.270586 -0.038064 -0.563386 -7.125000 0.000000 0.000000 83.985994 -4.512633 12.706266 -11.631541 19.432570 -2.485118 0.790378 -0.182339 -7.795129 7.125000 0.000000 0.000000 
-2.355696 17.419358 -23.070108 -5.230904 10.544001 2.101251 -4.835648 -5.858471 -14.079878 2.598759 12.321178 34.457412 2.819517 -18.047837 -4.301615 0.114400 2.181100 6.006500 21.523011 -5.025302 -14.936805 -2.289613 -12.561512 34.025755 0.592539 -6.315691 -14.377033 -0.132300 -2.344200 6.457800 1.639006 2.230625 -4.187008 1.292185 1.178182 -0.670350 -0.966651 7.734168 16.837223 0.219200 2.398400 12.901000 -91.666909 4.895086 23.593554 13.010782 -23.734701 -3.089385 -0.273277 -0.048153 -0.670183 -7.125000 0.000000 0.000000 83.808409 -3.872478 12.816614 -11.489842 19.262251 -2.446427 0.783768 -0.291560 -8.308603 7.125000 0.000000 0.000000 
